PathFileType	4	(X/Y/Z)	/Users/niels/Desktop/University/Third Semester/Perception and Action/Exam/Gymnastics Motion Tracking/Code for Gym Tracking/Analyzed Data/Webcam_Backflip/id2_2_baseline_Sports2D/id2_2_baseline_Sports2D_px_person00.trc
DataRate	CameraRate	NumFrames	NumMarkers	Units	OrigDataRate	OrigDataStartFrame	OrigNumFrames
29.87551867219917	29.87551867219917	9	22	m	29.87551867219917	120	241
Frame#	Time	Hip			RHip			RKnee			RAnkle			RBigToe			RSmallToe			RHeel			LHip			LKnee			LAnkle			LBigToe			LSmallToe			LHeel			Neck			Head			Nose			RShoulder			RElbow			RWrist			LShoulder			LElbow			LWrist		
		X1	Y1	Z1	X2	Y2	Z2	X3	Y3	Z3	X4	Y4	Z4	X5	Y5	Z5	X6	Y6	Z6	X7	Y7	Z7	X8	Y8	Z8	X9	Y9	Z9	X10	Y10	Z10	X11	Y11	Z11	X12	Y12	Z12	X13	Y13	Z13	X14	Y14	Z14	X15	Y15	Z15	X16	Y16	Z16	X17	Y17	Z17	X18	Y18	Z18	X19	Y19	Z19	X20	Y20	Z20	X21	Y21	Z21	X22	Y22	Z22
120	4.016666666666667	0.87679880938166	-0.1957869788097697	0.0	0.8729643797533947	-0.19778560843945348	0.0	0.7947841993915765	-0.2643315300983496	0.0	0.782979392713285	-0.19940195623114884	0.0	0.7411632802688958	-0.20335993444301578	0.0	0.7473166803638144	-0.20165017660487547	0.0	0.780169024009783	-0.18281204329985484	0.0	0.8802371266611029	-0.1973027735438697	0.0	0.8096280573655691	-0.2673478643559464	0.0	0.7810785566487659	-0.19944572089040905	0.0	0.7377748731983311	-0.2102679079978359	0.0	0.7407332044845607	-0.2059700257401153	0.0	0.7785142909258556	-0.1811165181156659	0.0	0.9176871468898088	-0.32756025544274553	0.0	0.9506767798707709	-0.3825114663504523	0.0	0.9279575567605851	-0.37834040655818396	0.0	0.9034465288438903	-0.3117380973088958	0.0	0.8521175964156519	-0.25465459599934875	0.0	0.8092991829386561	-0.26434248155380763	0.0	0.9161735851848655	-0.31406443288653263	0.0	0.8697018920360053	-0.25561577561217447	0.0	0.8315409045714207	-0.26630203774010447	0.0
121	4.050138888888889	0.8606173391291951	-0.19825925880233614	0.0	0.8573096486272294	-0.20165113887325814	0.0	0.7988033866444789	-0.2900144264731751	0.0	0.7534050111118896	-0.23737959115029755	0.0	0.7150845972587632	-0.25743825656070457	0.0	0.7174798346908355	-0.25315234112087437	0.0	0.7466782933911261	-0.2191599740727095	0.0	0.8637299888815383	-0.19976974596945685	0.0	0.8103650694394953	-0.2906564910546366	0.0	0.752553719580639	-0.235294833112188	0.0	0.7128925014868726	-0.25908427625393476	0.0	0.7149994625760523	-0.25460437817986264	0.0	0.7449048900187732	-0.2164096177911436	0.0	0.9366946231703628	-0.3242741811206489	0.0	0.9833808038703511	-0.37451417595833625	0.0	0.9566003676847128	-0.3751023780670807	0.0	0.9211724795985682	-0.3128457914254223	0.0	0.8529836674444393	-0.26902572749799847	0.0	0.8121946075580264	-0.2931997913509751	0.0	0.9327782996209989	-0.3118523156739896	0.0	0.8728326457828781	-0.2671976199210592	0.0	0.8365607121222619	-0.29065416780107944	0.0
122	4.083611111111111	0.8449068186332221	-0.2099093288087548	0.0	0.8420279475739882	-0.2140021618832664	0.0	0.8051977413981124	-0.31923001723028505	0.0	0.7311682000260852	-0.2884438441884644	0.0	0.7009640697507079	-0.3236724541440875	0.0	0.6993192210728908	-0.3176066745509853	0.0	0.7204669387251238	-0.2704080761690104	0.0	0.8475614638432126	-0.21136801316213494	0.0	0.8138394844818163	-0.31762214417537427	0.0	0.7334367545769028	-0.28488523804757737	0.0	0.7020307032764861	-0.3220618714166379	0.0	0.7037045429166905	-0.3163306596417325	0.0	0.7209650544376095	-0.26753548943426303	0.0	0.9505467173695458	-0.3185773233547271	0.0	1.008190026167644	-0.3605467457392133	0.0	0.9796038062410599	-0.3661457683466629	0.0	0.9356490240678517	-0.3117211463829068	0.0	0.8580752447071751	-0.28730438069953423	0.0	0.8241302623586487	-0.3254472608845351	0.0	0.9449207291208407	-0.3073269062653904	0.0	0.8775207630254622	-0.28282586523823305	0.0	0.8467752175167448	-0.318382117996643	0.0
123	4.117083333333333	0.8309722607242022	-0.23062871565767099	0.0	0.828119445123597	-0.23451791793382054	0.0	0.8103180617872067	-0.3519601140990479	0.0	0.7170278030898692	-0.34854931911228654	0.0	0.697865449981794	-0.39579631993482856	0.0	0.6927208223099661	-0.389007753492426	0.0	0.702855687030221	-0.3325497537158079	0.0	0.8332459620942361	-0.23202703634612593	0.0	0.818292495559672	-0.348597335208623	0.0	0.7252287886729821	-0.34505903650480046	0.0	0.7053979354785513	-0.39349789356807435	0.0	0.7068131012326512	-0.3864002542594082	0.0	0.7091617335632512	-0.3309147681337672	0.0	0.9583823552092932	-0.3124359701007139	0.0	1.0242529984255941	-0.34362778009501277	0.0	0.9955088630458007	-0.35443702346655853	0.0	0.9455261112891661	-0.30941500121349585	0.0	0.8673022254438704	-0.3082082496219907	0.0	0.84332281609514	-0.3583622931752648	0.0	0.9517659977402684	-0.30253247744640144	0.0	0.88355682277456	-0.3020689678460766	0.0	0.8615486471778151	-0.34807644105403673	0.0
124	4.150555555555556	0.8195766010336679	-0.25956741473104267	0.0	0.8163630457607094	-0.2623843394334147	0.0	0.8117989731708198	-0.387749911304877	0.0	0.7104236799187764	-0.4132198908961326	0.0	0.7035596914420487	-0.46799235168157155	0.0	0.6958119708541134	-0.46137931270866467	0.0	0.6938413780751675	-0.4009178057033517	0.0	0.8219526848310533	-0.2608963948697354	0.0	0.8224755126939538	-0.38350342745070054	0.0	0.7275527809658286	-0.4113121889547768	0.0	0.7208117676600913	-0.466702901829509	0.0	0.721913375831624	-0.45883195913108116	0.0	0.7096526534545324	-0.40160198097577804	0.0	0.9598830093816051	-0.3079228391584157	0.0	1.03139758924582	-0.3270885261741063	0.0	1.003576357968714	-0.3431690725250855	0.0	0.9497031033744634	-0.3074966101814618	0.0	0.8801290803499976	-0.32987895448911064	0.0	0.8677597632608786	-0.38827525298844057	0.0	0.9529223802826438	-0.2996185271316222	0.0	0.8909970964669096	-0.32351969584045337	0.0	0.8810580553852917	-0.3772072549806137	0.0
125	4.184027777777778	0.8109413662286179	-0.295356598246326	0.0	0.8071331323926917	-0.2964977667204394	0.0	0.8095552994219641	-0.4260034108015162	0.0	0.7103477969611702	-0.4791773115084828	0.0	0.7156341965406162	-0.536709413333223	0.0	0.7060573661743503	-0.5309508213139651	0.0	0.6925844109196562	-0.47179131887433695	0.0	0.8141729666621118	-0.2965603798014131	0.0	0.825838713085033	-0.4218911902814215	0.0	0.7381593895701952	-0.47918733229441773	0.0	0.7438634079444097	-0.5364021900485981	0.0	0.7444726652299727	-0.5285147218653523	0.0	0.7201900078003376	-0.4747919567546682	0.0	0.955249338454051	-0.3071131636347671	0.0	1.0300681481030187	-0.3139454241763066	0.0	1.0038308741619721	-0.3350486517034634	0.0	0.9476205959195884	-0.3080580406019569	0.0	0.8955002206870778	-0.350404396975724	0.0	0.8947758862226558	-0.41126153014629824	0.0	0.948468704539237	-0.300806900982439	0.0	0.8992542101182879	-0.34537697598991446	0.0	0.9041433602823877	-0.40270677834708807	0.0
126	4.2175	0.8049516337969147	-0.33643458376459434	0.0	0.8004818188964584	-0.3357137256243288	0.0	0.8052351782081038	-0.4666358616671351	0.0	0.7158025132723185	-0.5444281044237486	0.0	0.7318406100308048	-0.6005817139389563	0.0	0.7209910085680642	-0.5962157149062061	0.0	0.697845964359673	-0.5425438042076353	0.0	0.8096671765342506	-0.3373877060596932	0.0	0.8280313323627373	-0.46335359631228945	0.0	0.7533611645199102	-0.5452127619844104	0.0	0.7688848357427446	-0.5998570061344057	0.0	0.768841691178984	-0.5925137430876148	0.0	0.7366914178866021	-0.5465550616412437	0.0	0.9451016441343594	-0.31196221255864187	0.0	1.0212636547634615	-0.3066117685505102	0.0	0.9969482513713531	-0.3320939954046577	0.0	0.9395184873823543	-0.31341095083454007	0.0	0.9116080957987052	-0.36826101040329096	0.0	0.9202229327553196	-0.42436851317925295	0.0	0.9388729448098558	-0.30815842445684716	0.0	0.9060478593960717	-0.3662799843920506	0.0	0.9263863395242571	-0.4223160974927148	0.0
127	4.250972222222222	0.801304091292296	-0.38144883342205843	0.0	0.7962798628832607	-0.37910097323587183	0.0	0.800965252899326	-0.5099542132535421	0.0	0.7253912831249755	-0.6075532657765811	0.0	0.7498043959639746	-0.6594663252032638	0.0	0.7381418093747986	-0.6568442735011077	0.0	0.7078228103434392	-0.611132575338679	0.0	0.8076159909935318	-0.3819917828052653	0.0	0.8287031496285545	-0.507609641337475	0.0	0.7691131280915144	-0.607466340594738	0.0	0.7908140488151787	-0.6566685646646293	0.0	0.7900237398275517	-0.6501547765344985	0.0	0.754444676218569	-0.6143034006488306	0.0	0.9304824236792065	-0.3238786839749045	0.0	1.0063493290405363	-0.30669792042445493	0.0	0.9840604340887225	-0.3356074546565501	0.0	0.9265151526197068	-0.3254250332625085	0.0	0.925961339312705	-0.3826780917344927	0.0	0.939475896690677	-0.42679709844362673	0.0	0.9249795367421599	-0.3229127537149042	0.0	0.9076632028768121	-0.3857007523696176	0.0	0.9407207204513568	-0.435901727510538	0.0
128	4.2844444444444445	0.7995530556866484	-0.4293017473773682	0.0	0.7942382860181567	-0.4259022316972281	0.0	0.7982737932473225	-0.5559316630350243	0.0	0.7370950594933391	-0.6672246741726368	0.0	0.767176175373255	-0.7136224300668137	0.0	0.7551424123521749	-0.7127559311951969	0.0	0.7201190621159266	-0.6757373221556758	0.0	0.8069727271349127	-0.4293330821133878	0.0	0.8278514119282724	-0.5541865012660635	0.0	0.7821726394902349	-0.6653155520525217	0.0	0.8067579916838845	-0.7078154855596651	0.0	0.8051172881943945	-0.7021826136534643	0.0	0.7694524554710175	-0.6767521445861093	0.0	0.9129106386861043	-0.3433309722236481	0.0	0.9869025765278753	-0.3148467160209364	0.0	0.9666877136139682	-0.34614646862038384	0.0	0.9103748443742337	-0.3449223889654863	0.0	0.935905214927471	-0.3939225389033136	0.0	0.9505063982569667	-0.4202576069099241	0.0	0.9080156664213416	-0.3450658063510856	0.0	0.9008673629982633	-0.40388350741993373	0.0	0.9405468242704756	-0.4452481750626377	0.0
